# Exported from Wings 3D 1.0.1
mtllib shot_0.mtl
o cube1
#6 vertices, 8 faces
v -0.52200000 -5.5511151e-17 1.00000000
v 5.5511151e-17 -0.52200000 1.00000000
v -5.5511151e-17 0.52200000 1.00000000
v 0.52200000 -5.5511151e-17 1.00000000
v 0.0000000e+0 0.0000000e+0 2.76683258
v 0.0000000e+0 0.0000000e+0 -4.75693105
vn -0.99498567 -1.5805392e-16 0.10001756
vn 3.9513481e-17 -0.99498567 0.10001756
vn -3.9513481e-17 0.99498567 0.10001756
vn 0.99498567 0.0000000e+0 0.10001756
vn -1.3572699e-16 -4.0718098e-16 1.00000000
vn 4.3378705e-16 -4.3378705e-16 -1.00000000
g cube1_default
usemtl default
f 1//1 6//6 2//2
f 2//2 4//4 5//5
f 2//2 6//6 4//4
f 3//3 1//1 5//5
f 3//3 6//6 1//1
f 4//4 6//6 3//3
f 5//5 1//1 2//2
f 5//5 4//4 3//3
